<?xml version="1.0"?>
<svg version="1.1" xmlns="http://www.w3.org/2000/svg" width="400px" height="200px" style="border: dashed 2px #aaa"><path fill="#" d="M51.89,125.2l0-3.57l3.15-1.26l0-19.74l-3.15-1.26l0-3.57l9.66-0.21l11.76,0l0,7.98l-3.906,0l-1.05-2.94l-6.804,0l0,7.35l8.694,0l0,4.62l-8.694,0l0,7.77l3.864,1.26l0,3.57l-13.524,0z M90.08942,102.1c6.804,0,10.584,4.116,10.584,11.34c0,7.56-4.41,12.18-11.214,12.18c-6.846,0-10.71-3.57-10.71-11.55c0-7.56,4.494-11.97,11.34-11.97z M89.87942,107.14c-3.066,0-4.62,1.68-4.62,6.72c0,4.62,1.344,6.72,4.41,6.72c3.024,0,4.494-1.89,4.494-6.93c0-4.284-1.26-6.51-4.284-6.51z M117.87284,102.1c6.804,0,10.584,4.116,10.584,11.34c0,7.56-4.41,12.18-11.214,12.18c-6.846,0-10.71-3.57-10.71-11.55c0-7.56,4.494-11.97,11.34-11.97z M117.66284,107.14c-3.066,0-4.62,1.68-4.62,6.72c0,4.62,1.344,6.72,4.41,6.72c3.024,0,4.494-1.89,4.494-6.93c0-4.284-1.26-6.51-4.284-6.51z M149.85626,125.2l-0.378-2.226c-0.588,0.588-2.73,2.646-6.342,2.646c-5.88,0-8.61-4.284-8.61-11.214c0-7.896,3.78-12.306,11.466-12.306c1.008,0,2.226,0.21,3.15,0.42l0-5.334l-3.36-0.84l0-3.36l9.66-0.336l0,28.056l3.36,0.84l0,3.36z M149.14226,118.186l0-10.416c-0.798-0.378-2.058-0.63-3.276-0.63c-3.57,0-4.83,2.73-4.83,6.93c0,4.242,1.176,6.51,4.032,6.51c2.688,0,4.074-2.394,4.074-2.394z M166.63568,95.59c0-2.394,1.722-3.78,3.612-3.78c2.184,0,3.528,1.134,3.528,3.78c0,2.478-1.806,3.822-3.528,3.822c-2.268,0-3.612-1.344-3.612-3.822z M173.69168,120.79l2.94,1.05l0,3.36l-12.6,0l0-3.36l3.36-1.05l0-13.65l-3.36-1.05l0-3.36l9.66-0.21l0,18.27z M202.7771,115.246l-13.944,0c0.252,3.36,2.184,5.334,5.082,5.334c3.486,0,7.056-1.974,7.056-1.974l1.806,3.486s-4.2,3.528-9.576,3.528c-7.224,0-10.92-4.2-10.92-11.34c0-7.35,4.158-12.18,11.214-12.18c6.258,0,9.534,3.864,9.534,9.87c0,1.596-0.252,3.15-0.252,3.276z M188.9171,111.34l7.602,0c0-2.394-1.008-4.2-3.444-4.2c-2.352,0-3.822,1.722-4.158,4.2z"/><path fill="#" d=""/></svg>
