<svg xmlns="http://www.w3.org/2000/svg" version="1.1" xmlns:xlink="http://www.w3.org/1999/xlink" xmlns:svgjs="http://svgjs.dev/svgjs" width="765" height="625" viewBox="0 0 311.74799194335935 300" class="svg-animations " style="background-color: rgb(255, 255, 255);"><svg viewBox="0 0 139.99041748046875 138.99172973632812" width="0" height="0" x="25.97899932861327" y="125" style="fill: rgb(0, 0, 0);"><svg width="0" height="0" viewBox="0 0 140 134" xmlns="http://www.w3.org/2000/svg">
	<g clip-path="url(#clip0)">
	<path d="M130.694 68.26C133.686 63.1805 135.837 57.8465 137.187 52.4106C141.693 64.5045 140.917 78.4443 133.838 90.4236C121.4 111.48 94.2584 118.469 73.2018 106.031C67.9185 102.912 63.5137 98.8638 60.0891 94.2045C86.2635 103.281 116.066 93.0206 130.694 68.26Z"/>
	<path d="M101.439 15.0598C98.5359 9.92943 94.9841 5.41015 90.9611 1.51465C103.679 3.65335 115.366 11.3043 122.202 23.4109C134.22 44.7088 126.696 71.71 105.398 83.7274C100.051 86.7445 94.3475 88.5268 88.606 89.1761C109.561 71.048 115.57 40.1132 101.439 15.0598Z"/>
	<path d="M40.7384 13.8123C34.8441 13.7487 29.1534 14.5634 23.7683 16.1165C31.9796 6.16135 44.443 -0.140189 58.3577 -0.000154647C82.8135 0.241723 102.432 20.2539 102.19 44.7089C102.126 50.845 100.815 56.6882 98.5105 61.9713C93.2909 34.7665 69.5099 14.0924 40.7384 13.8123Z"/>
	<path d="M9.30624 65.7395C6.31452 70.8189 4.16302 76.1529 2.81356 81.5888C-1.69312 69.4949 -0.916544 55.5552 6.16175 43.5759C18.587 22.5326 45.7289 15.5436 66.7856 27.9812C72.0688 31.1001 76.4737 35.1484 79.8982 39.8077C53.7365 30.7182 23.9339 40.9789 9.30624 65.7395Z"/>
	<path d="M38.5614 118.94C41.4513 124.07 45.0031 128.59 49.0388 132.485C36.3208 130.346 24.6339 122.695 17.7975 110.589C5.77971 89.291 13.3036 62.2898 34.6021 50.2723C39.949 47.2552 45.6524 45.473 51.394 44.8237C30.4392 62.9518 24.4303 93.8866 38.5614 118.94Z"/>
	<path d="M99.2616 120.187C105.156 120.251 110.847 119.436 116.232 117.883C108.02 127.838 95.5442 134.127 81.6423 133.987C57.1865 133.745 37.5684 113.733 37.8103 89.278C37.874 83.142 39.1852 77.2987 41.4895 72.0156C46.7091 99.2332 70.5029 119.907 99.2616 120.187Z"/>
	</g>
	</svg></svg><svg x="-24" y="125" style="fill: rgb(0, 0, 0);"><path d="M25.97 43L1.08 43L1.08 34.14L3.78 34.14L3.78 9.84L1.08 9.84L1.08 0.99L33.37 0.99L33.37 14.97L23.81 14.97L23.81 9.84L18.90 9.84L18.90 18.81L27.05 18.81L27.05 24.96L18.90 24.96L18.90 34.14L25.97 34.14L25.97 43ZM49.03 43.76Q41.36 43.76 37.04 39.73Q32.72 35.71 32.72 27.99L32.72 27.99Q32.72 20.27 37.04 16.24Q41.36 12.22 49.03 12.22L49.03 12.22Q56.81 12.22 61.07 16.30Q65.34 20.37 65.34 27.99L65.34 27.99Q65.34 35.71 61.02 39.73Q56.70 43.76 49.03 43.76L49.03 43.76ZM49.03 34.14Q50.60 34.14 51.38 33.31Q52.16 32.47 52.16 30.69L52.16 30.69L52.16 25.29Q52.16 23.51 51.38 22.67Q50.60 21.83 49.03 21.83L49.03 21.83Q47.47 21.83 46.68 22.67Q45.90 23.51 45.90 25.29L45.90 25.29L45.90 30.69Q45.90 32.47 46.68 33.31Q47.47 34.14 49.03 34.14L49.03 34.14ZM83.16 43.76Q75.49 43.76 71.17 39.73Q66.85 35.71 66.85 27.99L66.85 27.99Q66.85 20.27 71.17 16.24Q75.49 12.22 83.16 12.22L83.16 12.22Q90.94 12.22 95.20 16.30Q99.47 20.37 99.47 27.99L99.47 27.99Q99.47 35.71 95.15 39.73Q90.83 43.76 83.16 43.76L83.16 43.76ZM83.16 34.14Q84.73 34.14 85.51 33.31Q86.29 32.47 86.29 30.69L86.29 30.69L86.29 25.29Q86.29 23.51 85.51 22.67Q84.73 21.83 83.16 21.83L83.16 21.83Q81.59 21.83 80.81 22.67Q80.03 23.51 80.03 25.29L80.03 25.29L80.03 30.69Q80.03 32.47 80.81 33.31Q81.59 34.14 83.16 34.14L83.16 34.14ZM111.83 43.76Q106.33 43.76 103.55 39.65Q100.76 35.55 100.76 27.99L100.76 27.99Q100.76 20.43 103.55 16.32Q106.33 12.22 111.83 12.22L111.83 12.22Q114.59 12.22 116.72 13.57Q118.85 14.92 120.20 16.65L120.20 16.65L120.20 9.84L117.02 9.84L117.02 0.99L132.62 0.99L132.62 34.14L135 34.14L135 43L120.20 43L120.20 39.33Q118.85 41.06 116.72 42.41Q114.59 43.76 111.83 43.76L111.83 43.76ZM117.07 34.14Q118.64 34.14 119.42 33.31Q120.20 32.47 120.20 30.69L120.20 30.69L120.20 25.29Q120.20 23.51 119.42 22.67Q118.64 21.83 117.07 21.83L117.07 21.83Q115.51 21.83 114.72 22.67Q113.94 23.51 113.94 25.29L113.94 25.29L113.94 30.69Q113.94 32.47 114.72 33.31Q115.51 34.14 117.07 34.14L117.07 34.14ZM150.34 10.01L139.32 10.01L139.32 0.99L150.34 0.99L150.34 10.01ZM153.90 43L136.73 43L136.73 34.14L139.10 34.14L139.10 21.83L136.73 21.83L136.73 12.98L151.52 12.98L151.52 34.14L153.90 34.14L153.90 43ZM171.50 43.76Q163.84 43.76 159.52 39.73Q155.20 35.71 155.20 27.99L155.20 27.99Q155.20 20.27 159.52 16.24Q163.84 12.22 171.50 12.22L171.50 12.22Q179.12 12.22 182.49 16.19Q185.87 20.16 185.87 26.04L185.87 26.04L185.87 29.93L168.37 29.93L168.37 30.26Q168.37 32.25 169.56 33.20Q170.75 34.14 173.50 34.14L173.50 34.14Q176.80 34.14 179.77 33.66Q182.74 33.17 184.95 32.42L184.95 32.42L184.95 41.06Q183.06 42.08 179.41 42.92Q175.77 43.76 171.50 43.76L171.50 43.76ZM168.37 23.99L174.64 23.99L174.64 23.34Q174.64 21.51 173.85 20.70Q173.07 19.89 171.50 19.89L171.50 19.89Q169.94 19.89 169.16 20.73Q168.37 21.56 168.37 23.34L168.37 23.34L168.37 23.99Z"/></svg><text fill="#ffffff" font-family="Helvetica" font-size="16px" x="180.87399597167968" y="175.3849983215332"><tspan dy="0" x="180.87399597167968"></tspan></text></svg>